<svg width="81" height="80" viewBox="0 0 81 80" fill="none" xmlns="http://www.w3.org/2000/svg">
<path d="M33.8334 58.3334H47.1667" stroke="#2752E7" stroke-width="2" stroke-linecap="round" stroke-linejoin="round"/>
<path d="M7.16663 58.3334V25C7.16663 11.6667 10.5 8.33337 23.8333 8.33337" stroke="#2752E7" stroke-width="2" stroke-linecap="round" stroke-linejoin="round"/>
<path d="M73.8333 58.3334V25C73.8333 11.6667 70.5 8.33337 57.1666 8.33337" stroke="#2752E7" stroke-width="2" stroke-linecap="round" stroke-linejoin="round"/>
<path d="M33.8333 53.0333V64C33.8333 70.6666 31.1666 73.3333 24.5 73.3333H16.5C9.83329 73.3333 7.16663 70.6666 7.16663 64V53.0333C7.16663 46.3666 9.83329 43.7 16.5 43.7H24.5C31.1666 43.7 33.8333 46.3666 33.8333 53.0333Z" stroke="#2752E7" stroke-width="2" stroke-linecap="round" stroke-linejoin="round"/>
<path d="M73.8333 53.0333V64C73.8333 70.6666 71.1666 73.3333 64.5 73.3333H56.5C49.8333 73.3333 47.1666 70.6666 47.1666 64V53.0333C47.1666 46.3666 49.8333 43.7 56.5 43.7H64.5C71.1666 43.7 73.8333 46.3666 73.8333 53.0333Z" stroke="#2752E7" stroke-width="2" stroke-linecap="round" stroke-linejoin="round"/>
</svg>
