<svg width="81" height="80" viewBox="0 0 81 80" fill="none" xmlns="http://www.w3.org/2000/svg">
<path d="M13.9 19.9C9.66663 25.5 7.16663 32.4666 7.16663 40C7.16663 58.4 22.1 73.3333 40.5 73.3333C58.9 73.3333 73.8333 58.4 73.8333 40C73.8333 21.6 58.9 6.66663 40.5 6.66663" stroke="#2752E7" stroke-width="2" stroke-linecap="round" stroke-linejoin="round"/>
<path d="M17.1666 40C17.1666 52.9 27.6 63.3333 40.5 63.3333C53.4 63.3333 63.8333 52.9 63.8333 40C63.8333 27.1 53.4 16.6666 40.5 16.6666" stroke="#2752E7" stroke-width="2" stroke-linecap="round" stroke-linejoin="round"/>
<path d="M40.5 53.3333C47.8667 53.3333 53.8333 47.3666 53.8333 40C53.8333 32.6333 47.8667 26.6666 40.5 26.6666" stroke="#2752E7" stroke-width="2" stroke-linecap="round" stroke-linejoin="round"/>
</svg>
